<?xml version="1.0" encoding="UTF-8"?>
<svg overflow="visible" baseProfile="tiny" version="1.2" viewBox="0 0 237 306" xml:space="preserve" xmlns="http://www.w3.org/2000/svg">
<path d="m100.39 213.74c9.22-9.06 22.2 0.04 22.2 9.02s0 58.68 0 65.67-5.96 11.62-16.68 11.01c-12.96-0.65-39.55-10.6-47.12-17.03s-6.5-16.67-2.51-21.05 40.99-45.11 44.11-47.62z" fill="#333333"/>
<path d="m139.63 217.26c-5.77-11.57 6.89-21.1 15.44-18.32s55.81 18.13 62.45 20.29 9.21 9.26 5.32 19.27c-4.62 12.13-22.3 34.33-30.76 39.55s-17.86 1.03-20.8-4.12c-2.93-5.16-30.23-52.93-31.65-56.67z" fill="#333333"/>
<path d="m156.39 181.31c-12.78 1.91-17.94-13.08-12.66-20.35s34.49-47.48 38.6-53.13 11.65-5.9 19.97 0.9c10.11 8.14 25.76 31.82 28.11 41.47s-4.54 17.3-10.35 18.51-59.67 12.41-63.67 12.6z" fill="#333333"/>
<path d="m126.91 153.44c-2.13 12.75-17.98 13.02-23.26 5.75s-59.81-110.73-63.91-116.38-2.01-12.9 7.03-18.72c10.87-7.1 54.7-19.14 64.6-18.4s15.05 9.66 14.4 15.56 2.19 128.33 1.14 132.19z" fill="#333333"/>
<path d="m91.43 175.36c11.46 5.97 6.83 21.12-1.72 23.9s-55.81 18.14-62.46 20.3c-6.64 2.16-12.89-2.08-15.63-12.47-3.39-12.53-2.14-40.89 1.63-50.08s13.84-11.33 19.25-8.89 55.58 25.05 58.93 27.24z" fill="#333333"/>
</svg>
